<svg xmlns="http://www.w3.org/2000/svg" width="16.484" height="28.144" viewBox="0 0 16.484 28.144">
  <g id="Grupo_30563" data-name="Grupo 30563" transform="translate(0 0)">
    <rect id="Retangulo_662" data-name="Retangulo 662" width="1.776" height="19.268" transform="translate(7.31 0.975)" fill="#fff"/>
    <path id="Caminho_40611" data-name="Caminho 40611" d="M418.88,85.146l-2.989-2.693a.884.884,0,0,0-1.191,0l-2.961,2.693a.889.889,0,0,0,1.2,1.314l2.363-2.154,2.393,2.157a.881.881,0,0,0,.593.227.887.887,0,0,0,.595-1.547" transform="translate(-407.097 -82.224)" fill="#fff"/>
    <path id="Caminho_40612" data-name="Caminho 40612" d="M415.46,95.9a4.41,4.41,0,1,0,4.409,4.409A4.415,4.415,0,0,0,415.46,95.9m0,7.042a2.634,2.634,0,1,1,2.633-2.633,2.636,2.636,0,0,1-2.633,2.633" transform="translate(-407.262 -76.578)" fill="#fff"/>
    <path id="Caminho_40613" data-name="Caminho 40613" d="M420.559,86.2H417.51a.888.888,0,0,0-.887.889v3.047a.886.886,0,0,0,.887.887h3.049a.885.885,0,0,0,.887-.887V87.092a.888.888,0,0,0-.887-.889m-.887,3.049H418.4v-1.27h1.273Z" transform="translate(-404.962 -80.582)" fill="#fff"/>
    <path id="Caminho_40614" data-name="Caminho 40614" d="M419.179,88.969V91.32l-5.234,2.03L414.588,95l5.8-2.246a.887.887,0,0,0,.568-.828v-2.96Z" transform="translate(-406.067 -79.44)" fill="#fff"/>
    <path id="Caminho_40615" data-name="Caminho 40615" d="M410.767,88.026a2.4,2.4,0,0,0-2.4,2.383,2.3,2.3,0,0,0,.653,1.677,2.436,2.436,0,0,0,1.745.736,2.4,2.4,0,0,0,0-4.8m0,3.019a.638.638,0,0,1-.468-.192.532.532,0,0,1-.154-.4v-.031a.622.622,0,1,1,.622.62" transform="translate(-408.368 -79.829)" fill="#fff"/>
    <path id="Caminho_40616" data-name="Caminho 40616" d="M411.255,93.122V90.77h-1.776v2.96a.887.887,0,0,0,.568.828l5.8,2.248.643-1.653Z" transform="translate(-407.91 -78.697)" fill="#fff"/>
  </g>
</svg>
