<svg id="Grupo_30564" data-name="Grupo 30564" xmlns="http://www.w3.org/2000/svg" width="25.498" height="30.189" viewBox="0 0 25.498 30.189">
  <path id="Caminho_40592" data-name="Caminho 40592" d="M451.041,81.657h24.647a.4.4,0,0,0,.425-.427.424.424,0,0,0-.425-.425H451.041a.426.426,0,0,0,0,.852" transform="translate(-450.616 -80.805)" fill="#fff"/>
  <path id="Caminho_40593" data-name="Caminho 40593" d="M475.411,101.573h-23.7a.425.425,0,1,0,0,.85h23.7a.4.4,0,0,0,.425-.425.424.424,0,0,0-.425-.425" transform="translate(-450.339 -72.234)" fill="#fff"/>
  <path id="Caminho_40594" data-name="Caminho 40594" d="M471.39,86.643a2.864,2.864,0,0,0-.709-2.173,2.527,2.527,0,0,0,.709-2.126h-.85a2.067,2.067,0,0,1-.52,1.606,3.227,3.227,0,0,1-.8.612c-.048.051-.143.051-.189.1a1.647,1.647,0,0,0-.425.188,12.024,12.024,0,0,1-3.827.706c-2.6,0-3.968-.706-3.968-1.037s1.322-1.038,3.968-1.038a12.049,12.049,0,0,1,3.5.565,3.008,3.008,0,0,0,.945-.518,12.2,12.2,0,0,0-4.442-.9c-2.314,0-4.772.569-4.772,1.892,0,1.274,2.5,1.89,4.772,1.89a11.633,11.633,0,0,0,3.543-.566,4.32,4.32,0,0,0,1.7-.805,2.26,2.26,0,0,1,.52,1.608,2.065,2.065,0,0,1-.52,1.606,3.227,3.227,0,0,1-.8.612c-.048.048-.143.048-.189.1a1.69,1.69,0,0,0-.425.186,11.944,11.944,0,0,1-3.827.708c-2.6,0-3.968-.708-3.968-1.037s1.322-1.038,3.968-1.038a12,12,0,0,1,3.5.566,3.039,3.039,0,0,0,.945-.52,12.2,12.2,0,0,0-4.442-.9c-2.314,0-4.772.569-4.772,1.892,0,1.274,2.5,1.89,4.772,1.89a11.633,11.633,0,0,0,3.543-.566,4.32,4.32,0,0,0,1.7-.805,2.26,2.26,0,0,1,.52,1.608,2.063,2.063,0,0,1-.52,1.606,3.193,3.193,0,0,1-.8.612c-.048.048-.143.048-.189.1a1.69,1.69,0,0,0-.425.186,11.94,11.94,0,0,1-3.827.709c-2.6,0-3.968-.709-3.968-1.038s1.322-1.038,3.968-1.038a12,12,0,0,1,3.5.566,3.068,3.068,0,0,0,.945-.52,12.2,12.2,0,0,0-4.442-.9c-2.314,0-4.772.566-4.772,1.889,0,1.274,2.5,1.89,4.772,1.89a11.633,11.633,0,0,0,3.543-.566,4.3,4.3,0,0,0,1.7-.805,2.26,2.26,0,0,1,.52,1.608,2.063,2.063,0,0,1-.52,1.606,3.232,3.232,0,0,1-.8.613c-.048.047-.143.047-.189.1a1.742,1.742,0,0,0-.425.186,11.941,11.941,0,0,1-3.827.709c-2.6,0-3.968-.709-3.968-1.038s1.322-1.038,3.968-1.038a12,12,0,0,1,3.5.566,3.1,3.1,0,0,0,.945-.52,12.228,12.228,0,0,0-4.442-.9c-2.314,0-4.772.565-4.772,1.889,0,1.274,2.5,1.89,4.772,1.89a11.59,11.59,0,0,0,3.543-.566,4.3,4.3,0,0,0,1.7-.805,2.26,2.26,0,0,1,.52,1.608,1.88,1.88,0,0,1-.52,1.557,3.314,3.314,0,0,1-.8.616c-.048.047-.143.047-.189.093a1.811,1.811,0,0,0-.425.189,11.938,11.938,0,0,1-3.827.711c-2.6,0-3.968-.711-3.968-1.04s1.322-1.041,3.968-1.041a11.99,11.99,0,0,1,3.5.569,3.1,3.1,0,0,0,.945-.52,12.17,12.17,0,0,0-4.442-.9c-2.314,0-4.772.565-4.772,1.89,0,1.276,2.5,1.89,4.772,1.89a11.509,11.509,0,0,0,3.543-.569,4.253,4.253,0,0,0,1.7-.8,2.254,2.254,0,0,1,.52,1.606,2.052,2.052,0,0,1-.52,1.6,3.357,3.357,0,0,1-.8.617c-.048.047-.143.047-.189.092a1.871,1.871,0,0,0-.425.189,11.938,11.938,0,0,1-3.827.711c-2.6,0-3.968-.711-3.968-1.04s1.322-1.041,3.968-1.041a11.99,11.99,0,0,1,3.5.569,3.1,3.1,0,0,0,.945-.52,12.169,12.169,0,0,0-4.442-.9c-2.314,0-4.772.564-4.772,1.889,0,1.276,2.5,1.89,4.772,1.89a11.509,11.509,0,0,0,3.543-.569,4.252,4.252,0,0,0,1.7-.8,2.251,2.251,0,0,1,.52,1.606h.85a2.86,2.86,0,0,0-.709-2.173,2.523,2.523,0,0,0,.709-2.126,2.86,2.86,0,0,0-.709-2.173,2.523,2.523,0,0,0,.709-2.126,2.744,2.744,0,0,0-.709-2.126,2.642,2.642,0,0,0,.709-2.126,2.864,2.864,0,0,0-.709-2.173,2.642,2.642,0,0,0,.709-2.126,2.864,2.864,0,0,0-.709-2.173,2.47,2.47,0,0,0,.709-2.126" transform="translate(-446.742 -80.17)" fill="#fff"/>
  <path id="Caminho_40595" data-name="Caminho 40595" d="M462.193,86.677a2.858,2.858,0,0,0-.709-2.173,2.856,2.856,0,0,0,.709-2.126h-.85a2.067,2.067,0,0,1-.52,1.606,3.233,3.233,0,0,1-.8.613c-.047.049-.143.049-.189.1a1.7,1.7,0,0,0-.425.188,11.983,11.983,0,0,1-3.827.708c-2.6,0-3.967-.708-3.967-1.038s1.321-1.038,3.967-1.038a12.048,12.048,0,0,1,3.5.565,3.007,3.007,0,0,0,.945-.518,12.228,12.228,0,0,0-4.442-.9c-2.314,0-4.772.568-4.772,1.89,0,1.274,2.5,1.89,4.772,1.89a11.632,11.632,0,0,0,3.543-.566,4.3,4.3,0,0,0,1.7-.805,2.26,2.26,0,0,1,.52,1.608,2.063,2.063,0,0,1-.52,1.606,3.233,3.233,0,0,1-.8.613c-.047.047-.143.047-.189.1a1.741,1.741,0,0,0-.425.186,11.942,11.942,0,0,1-3.827.709c-2.6,0-3.967-.709-3.967-1.038s1.321-1.038,3.967-1.038a12,12,0,0,1,3.5.566,3.039,3.039,0,0,0,.945-.52,12.228,12.228,0,0,0-4.442-.9c-2.314,0-4.772.569-4.772,1.89,0,1.274,2.5,1.89,4.772,1.89a11.632,11.632,0,0,0,3.543-.566,4.3,4.3,0,0,0,1.7-.805,2.343,2.343,0,0,1,.52,1.608,2.066,2.066,0,0,1-.52,1.608,3.262,3.262,0,0,1-.8.612c-.047.047-.143.047-.189.1a1.741,1.741,0,0,0-.425.186,11.942,11.942,0,0,1-3.827.709c-2.6,0-3.967-.709-3.967-1.038s1.321-1.038,3.967-1.038a12.045,12.045,0,0,1,3.5.566,3.038,3.038,0,0,0,.945-.52,12.228,12.228,0,0,0-4.442-.9c-2.314,0-4.772.568-4.772,1.889,0,1.274,2.5,1.89,4.772,1.89a11.632,11.632,0,0,0,3.543-.566,4.3,4.3,0,0,0,1.7-.805,2.262,2.262,0,0,1,.52,1.608,2.066,2.066,0,0,1-.52,1.608,3.262,3.262,0,0,1-.8.612c-.047.047-.143.047-.189.1a1.8,1.8,0,0,0-.425.186,11.942,11.942,0,0,1-3.827.709c-2.6,0-3.967-.709-3.967-1.037s1.321-1.04,3.967-1.04a12.045,12.045,0,0,1,3.5.566,3.068,3.068,0,0,0,.945-.52,12.228,12.228,0,0,0-4.442-.9c-2.314,0-4.772.565-4.772,1.89,0,1.273,2.5,1.889,4.772,1.889a11.589,11.589,0,0,0,3.543-.566,4.3,4.3,0,0,0,1.7-.805,2.264,2.264,0,0,1,.52,1.609,1.884,1.884,0,0,1-.52,1.557,3.388,3.388,0,0,1-.8.616c-.047.045-.143.045-.189.092a1.87,1.87,0,0,0-.425.189,11.938,11.938,0,0,1-3.827.711c-2.6,0-3.967-.711-3.967-1.04s1.321-1.041,3.967-1.041a12.038,12.038,0,0,1,3.5.569,3.068,3.068,0,0,0,.945-.52,12.169,12.169,0,0,0-4.442-.9c-2.314,0-4.772.565-4.772,1.889,0,1.276,2.5,1.89,4.772,1.89a11.508,11.508,0,0,0,3.543-.569,4.252,4.252,0,0,0,1.7-.8,2.254,2.254,0,0,1,.52,1.606,2.055,2.055,0,0,1-.52,1.6,3.388,3.388,0,0,1-.8.616c-.047.047-.143.047-.189.092a1.934,1.934,0,0,0-.425.189,11.939,11.939,0,0,1-3.827.711c-2.6,0-3.967-.711-3.967-1.038s1.321-1.043,3.967-1.043a12.038,12.038,0,0,1,3.5.569,3.068,3.068,0,0,0,.945-.52,12.169,12.169,0,0,0-4.442-.9c-2.314,0-4.772.565-4.772,1.89,0,1.274,2.5,1.889,4.772,1.889a11.508,11.508,0,0,0,3.543-.569,4.252,4.252,0,0,0,1.7-.8,2.251,2.251,0,0,1,.52,1.606h.85a2.856,2.856,0,0,0-.709-2.173,3.612,3.612,0,0,0,0-4.3,2.8,2.8,0,0,0,.709-2.079,2.86,2.86,0,0,0-.709-2.173,3.009,3.009,0,0,0,.709-2.126,2.86,2.86,0,0,0-.709-2.173,2.885,2.885,0,0,0,.709-2.081,2.975,2.975,0,0,0-.709-2.218,2.851,2.851,0,0,0,.709-2.126" transform="translate(-450.537 -80.156)" fill="#fff"/>
</svg>
