<svg xmlns="http://www.w3.org/2000/svg" width="13.757" height="15.419" viewBox="0 0 13.757 15.419">
  <path id="Caminho_40597" data-name="Caminho 40597" d="M503.909,97.585a7.576,7.576,0,0,1-7.648-7.668v-.041a7.59,7.59,0,0,1,7.809-7.711,7.4,7.4,0,0,1,5.408,2.066,1.517,1.517,0,0,1,.451,1.172,1.491,1.491,0,0,1-.576,1.09l-1.176.909a1.509,1.509,0,0,1-1.945-.055,3.07,3.07,0,0,0-5.2,2.488v.041a3.1,3.1,0,0,0,5.293,2.479,1.517,1.517,0,0,1,1.913-.149l1.151.819a1.5,1.5,0,0,1,.215,2.256,7.447,7.447,0,0,1-5.695,2.3m.161-14.679A6.867,6.867,0,0,0,497,89.877v.041a6.766,6.766,0,0,0,6.91,6.928,6.661,6.661,0,0,0,5.16-2.073.763.763,0,0,0,.206-.6.755.755,0,0,0-.315-.546l-1.151-.819a.766.766,0,0,0-.977.084,3.837,3.837,0,0,1-6.538-3.017v-.041a3.807,3.807,0,0,1,6.438-3.034.78.78,0,0,0,.994.016l1.176-.909a.74.74,0,0,0,.289-.55.779.779,0,0,0-.231-.6,6.6,6.6,0,0,0-4.89-1.851" transform="translate(-496.261 -82.166)" fill="#fff"/>
</svg>
