<svg xmlns="http://www.w3.org/2000/svg" xmlns:xlink="http://www.w3.org/1999/xlink" width="801" height="1167" viewBox="0 0 801 1167">
  <defs>
    <clipPath id="clip-path">
      <rect id="Retangulo_735" data-name="Retangulo 735" width="801" height="1167" transform="translate(565 1785)" fill="#fff"/>
    </clipPath>
  </defs>
  <g id="Grupo_de_mascara_184" data-name="Grupo de mascara 184" transform="translate(-565 -1785)" clip-path="url(#clip-path)">
    <path id="Uniao_3" data-name="Uniao 3" d="M1191.977,1253.373a119.757,119.757,0,0,1-34.065-7.572c-49.521-17.612-105.891-64.61-220.016-145.381C797.019,1000.735,606.654,912.248,436,844.282l-149.555,341.2a106.314,106.314,0,0,1-41.574,49.853q-28.661,18.506-65.595,18.464H0L219.822,764.452c-49.648-16.965-92.643-30.724-125.713-40.826-11.632-3.567-8.231-20.814,3.863-19.639,37.558,3.7,85.856,9.447,141.267,17.242L543.32,44.314A76.233,76.233,0,0,1,570.112,11.96,68.81,68.81,0,0,1,609.8,0H772.44a68.942,68.942,0,0,1,39.726,11.96,77.146,77.146,0,0,1,26.792,32.354L1382.236,1253.8H1204.408c-.457.026-.927.042-1.4.042Q1197.431,1253.84,1191.977,1253.373ZM966.222,892.652,691.139,262.191,472.938,760C638.7,791.7,820.634,835.851,966.222,892.652Z" transform="translate(565 1765.693)" fill="#00283e" opacity="0.2"/>
  </g>
</svg>
