<?xml version="1.0" encoding="UTF-8"?>
<!DOCTYPE svg PUBLIC "-//W3C//DTD SVG 1.1//EN" "http://www.w3.org/Graphics/SVG/1.1/DTD/svg11.dtd">
<!-- Creator: CorelDRAW 2020 (64 Bit) -->
<svg xmlns="http://www.w3.org/2000/svg" xml:space="preserve" width="358px" height="50px" version="1.1" style="shape-rendering:geometricPrecision; text-rendering:geometricPrecision; image-rendering:optimizeQuality; fill-rule:evenodd; clip-rule:evenodd"
viewBox="0 0 358 49.89"
 xmlns:xlink="http://www.w3.org/1999/xlink"
 xmlns:xodm="http://www.corel.com/coreldraw/odm/2003">
 <defs>
  <style type="text/css">
   <![CDATA[
    .fil0 {fill:#324F79;fill-rule:nonzero}
   ]]>
  </style>
 </defs>
 <g id="Camada_x0020_1">
  <metadata id="CorelCorpID_0Corel-Layer"/>
  <path class="fil0" d="M336.63 36.25l0 -7.56 12.87 0c0.66,0 0.99,-0.32 0.99,-0.91l0 -8.42c0,-0.59 -0.33,-0.92 -0.99,-0.92l-12.87 0 0 -7.55 19.51 0c0.59,0 0.92,-0.33 0.92,-0.99l0 -8.34c0,-0.66 -0.33,-0.99 -0.92,-0.99l-30.09 0c-0.53,0 -0.99,0.46 -0.99,0.99l0 32.48 1.1 0c0.93,0 1.7,0.32 2.3,0.95 0.55,0.6 0.84,1.35 0.84,2.25l0 8.34c0,0.36 -0.05,0.68 -0.13,0.99l26.91 0c0.52,0 0.98,-0.46 0.98,-0.99l0 -8.34c0,-0.53 -0.46,-0.99 -0.98,-0.99l-19.45 0zm-295.12 1.19c3.02,-4.08 4.53,-8.68 4.53,-13.8 0,-6.51 -2.3,-12.1 -6.83,-16.7 -4.6,-4.6 -10.12,-6.9 -16.63,-6.9 -6.5,0 -12.02,2.3 -16.62,6.9 -4.6,4.6 -6.9,10.19 -6.9,16.7 0,6.5 2.3,12.02 6.9,16.55 4.6,4.6 10.12,6.9 16.62,6.9 3.88,0 7.63,-0.91 11.17,-2.82l5.33 5.32c0.46,0.46 0.85,0.46 1.31,0l5.98 -5.98c0.4,-0.46 0.4,-0.92 0,-1.31l-4.86 -4.86zm-27.47 -23.2c2.23,-2.57 5.06,-3.81 8.54,-3.81 3.42,0 6.24,1.24 8.54,3.81 2.24,2.56 3.36,5.72 3.36,9.4 0,3.68 -1.12,6.76 -3.36,9.33 -2.23,2.56 -5.05,3.81 -8.54,3.81 -3.48,0 -6.31,-1.25 -8.54,-3.81 -2.3,-2.57 -3.42,-5.65 -3.42,-9.33 0,-3.68 1.12,-6.84 3.42,-9.4zm58.1 -13.67c-0.52,0 -0.98,0.46 -0.98,1.05l0 23.99c0,7.42 -2.7,11.17 -8.15,11.17 -5.46,0 -8.15,-3.75 -8.15,-11.17l0 -23.99c0,-0.72 -0.33,-1.05 -0.92,-1.05l-9.66 0c-0.52,0 -0.98,0.46 -0.98,1.05l0 6.7c1.26,1.7 2.29,3.51 3.07,5.43 1.25,3.07 1.89,6.36 1.89,9.89 0,2.79 -0.42,5.45 -1.25,7.97 -0.52,1.59 -1.21,3.11 -2.05,4.58 0.45,1.1 0.99,2.17 1.64,3.21l1.34 1.33c0.43,0.44 0.72,0.93 0.85,1.47 3.08,3.01 7.99,4.89 14.22,4.89 7.36,0 12.88,-2.62 15.71,-6.63 2.82,-4.01 4,-8.41 4,-13.34l0 -25.5c0,-0.72 -0.32,-1.05 -0.92,-1.05l-9.66 0zm24.46 -0.53c-0.39,0 -0.72,0.33 -0.98,0.99l-10.68 24.46 0 1.63c0,2.65 -0.33,5.19 -1.04,7.63 -0.72,2.46 -1.83,4.78 -3.38,6.98 -1.13,1.6 -2.61,3.01 -4.42,4.16 -0.02,0.39 0.24,0.68 0.66,0.68l10.05 0c0.39,0 0.72,-0.33 0.99,-0.99l10.77 -24.7 0.4 -0.92 0.39 0.92c3.62,8.11 7.2,16.24 10.71,24.39l0.15 0.35c0.32,0.63 0.65,0.95 0.97,0.95l9.92 0c0.53,0 0.92,-0.46 0.73,-0.99l-19.52 -44.55c-0.26,-0.66 -0.59,-0.99 -1.05,-0.99l-4.67 0zm34.19 36.21l0 -34.63c0,-0.72 -0.33,-1.05 -0.92,-1.05l-9.66 0c-0.53,0 -0.99,0.46 -0.99,1.05l0 32.49 4.69 10.71c0.13,0.34 0.19,0.69 0.19,1.04 0,0.24 -0.03,0.48 -0.09,0.71l25.5 0c0.6,0 0.92,-0.33 0.92,-0.99l0 -8.34c0,-0.66 -0.32,-0.99 -0.92,-0.99l-18.72 0zm28.27 10.32c0.59,0 0.92,-0.33 0.92,-0.99l0 -44.02c0,-0.66 -0.33,-0.99 -0.92,-0.99l-9.66 0c-0.53,0 -0.99,0.46 -0.99,0.99l0 32.48 1.1 0c0.93,0 1.71,0.32 2.3,0.95 0.55,0.6 0.84,1.35 0.84,2.25l0 8.34c0,0.36 -0.05,0.68 -0.13,0.99l6.54 0zm12.63 -45.01c-0.33,-0.66 -0.79,-0.99 -1.45,-0.99l-8.18 0c0.09,0.3 0.13,0.63 0.13,0.99l0 44.02c0,0.36 -0.04,0.68 -0.13,0.99l8.38 0c0.72,0 1.05,-0.33 1.05,-0.92l0 -21.88 11.76 21.81c0.46,0.66 0.99,0.99 1.58,0.99l1.18 0c0.59,0 1.12,-0.33 1.58,-0.99l11.69 -21.81 0 21.88c0,0.59 0.33,0.92 1.06,0.92l9.52 0c0.66,0 0.99,-0.33 0.99,-0.92l0 -44.09c0,-0.66 -0.33,-0.99 -0.99,-0.99l-9.26 0c-0.66,0 -1.18,0.33 -1.51,0.99l-13.74 26.15 -13.66 -26.15zm76.63 38.63c4.53,-4.53 6.83,-10.05 6.83,-16.55 0,-6.51 -2.3,-12.1 -6.83,-16.7 -4.6,-4.6 -10.12,-6.9 -16.63,-6.9 -6.5,0 -12.02,2.3 -16.62,6.9 -0.73,0.73 -1.39,1.48 -2.01,2.26l0 28.77c0.62,0.77 1.28,1.51 2.01,2.22 4.6,4.6 10.12,6.9 16.62,6.9 6.51,0 12.03,-2.3 16.63,-6.9zm-25.17 -7.22c-2.3,-2.57 -3.42,-5.65 -3.42,-9.33 0,-3.68 1.12,-6.84 3.42,-9.4 2.24,-2.57 5.06,-3.81 8.54,-3.81 3.42,0 6.25,1.24 8.55,3.81 2.23,2.56 3.35,5.72 3.35,9.4 0,3.68 -1.12,6.76 -3.35,9.33 -2.24,2.56 -5.06,3.81 -8.55,3.81 -3.48,0 -6.3,-1.25 -8.54,-3.81zm63.23 0.52c0,-4.14 -2.17,-7.95 -5.52,-10.32 2.83,-2.49 4.21,-5.65 4.21,-9.52 0,-3.62 -1.19,-6.64 -3.49,-9.2 -2.3,-2.57 -5.19,-3.81 -8.54,-3.88l-19.58 0c-0.53,0 -0.99,0.46 -0.99,0.99l0 6.85c1.24,1.68 2.24,3.46 3.01,5.34 1.26,3.07 1.89,6.36 1.89,9.89 0,3.52 -0.63,6.8 -1.88,9.84 -0.78,1.87 -1.78,3.63 -3.02,5.29l0 6.81c0,0.53 0.46,0.99 0.99,0.99l20.9 0c3.35,-0.07 6.24,-1.32 8.54,-3.88 2.3,-2.56 3.48,-5.58 3.48,-9.2zm-16.69 -22.67c2.37,0 3.88,1.58 3.88,4.01 0,2.43 -1.51,3.94 -3.88,3.94l-5.65 0 0 -7.95 5.65 0zm-5.65 17.55l7.03 0c2.3,0 3.75,1.38 3.75,3.94 0,2.56 -1.45,4.01 -3.75,4.01l-7.03 0 0 -7.95zm30.96 18.2c0.59,0 0.92,-0.33 0.92,-0.99l0 -44.02c0,-0.66 -0.33,-0.99 -0.92,-0.99l-9.66 0c-0.52,0 -0.98,0.46 -0.98,0.99l0 2.81c0.79,1.09 1.42,2.26 1.9,3.5 0.67,1.78 1.02,3.7 1.02,5.78 0,2.24 -0.41,4.3 -1.23,6.17 -0.44,1.01 -1.01,1.95 -1.69,2.84l0 0.62c0.99,1.02 1.84,2.18 2.51,3.43 1.1,2.07 1.73,4.38 1.73,6.78 0,2.08 -0.35,4 -1.03,5.78 -0.68,1.79 -1.69,3.42 -3.03,4.9l-0.18 0.2 0 1.21c0,0.53 0.46,0.99 0.98,0.99l9.66 0zm12.44 -10.32l0 -34.63c0,-0.72 -0.33,-1.05 -0.92,-1.05l-8.51 0c0.08,0.3 0.13,0.63 0.13,0.99l0 44.02c0,0.36 -0.05,0.68 -0.13,0.99l28.15 0c0.59,0 0.92,-0.33 0.92,-0.99l0 -8.34c0,-0.66 -0.33,-0.99 -0.92,-0.99l-18.72 0z"/>
 </g>
</svg>
