<svg xmlns="http://www.w3.org/2000/svg" width="30" height="30" viewBox="0 0 30 30">
  <g id="Grupo_184" data-name="Grupo 184" transform="translate(-4143 -3395)">
    <g id="Grupo_82" data-name="Grupo 82" transform="translate(4143 3395)">
      <circle id="Elipse_7" data-name="Elipse 7" cx="15" cy="15" r="15"/>
    </g>
    <g id="_1" data-name="1" transform="translate(2899.639 3336.916)">
      <g id="UG8QpP" transform="translate(1252.361 65.084)">
        <g id="Grupo_81" data-name="Grupo 81">
          <g id="Grupo_80" data-name="Grupo 80">
            <path id="Caminho_38313" data-name="Caminho 38313" d="M1257.6,76.007a3.274,3.274,0,0,0,3.386.93,6.992,6.992,0,0,0,.731-.266,4.54,4.54,0,0,0,1.272-.8,6.3,6.3,0,0,0,1.918-3.594,5.659,5.659,0,0,0-3.837-6.781,7.084,7.084,0,0,0-4.457-.093,6.53,6.53,0,0,0-1.2.528,5.9,5.9,0,0,0-2.806,3.494,7.043,7.043,0,0,0-.219,1.229,5.228,5.228,0,0,0,.578,2.877c.071.141.161.27.229.412a2.51,2.51,0,0,0,.7.9.746.746,0,0,0,.489.188c.251-.017.314-.258.383-.466a6.694,6.694,0,0,0,.152-.705.573.573,0,0,0-.082-.533,4.21,4.21,0,0,1,.607-5.141,4.6,4.6,0,0,1,4.014-1.209A3.9,3.9,0,0,1,1262.5,69.3a5.12,5.12,0,0,1,.29,1.762,5.408,5.408,0,0,1-.42,2.234,3.947,3.947,0,0,1-1.2,1.657c-.81.611-2.511.876-2.854-.4a2.461,2.461,0,0,1-.032-1.037c.16-.8.467-1.558.651-2.349a2.594,2.594,0,0,0,.047-1.277,1.121,1.121,0,0,0-.979-.908,1.455,1.455,0,0,0-1.413.534,3.224,3.224,0,0,0-.433,3.024,1.174,1.174,0,0,1,.037.668c-.321,1.3-.6,2.613-.935,3.91a9.034,9.034,0,0,0-.261,2.694,4.046,4.046,0,0,0,.076.752c.037.165.1.4.26.488.225.119.415-.167.52-.323a8.734,8.734,0,0,0,.987-2c.16-.454.284-.919.405-1.385C1257.284,77.187,1257.521,76.342,1257.6,76.007Z" transform="translate(-1252.361 -65.084)" fill="#fff" fill-rule="evenodd"/>
          </g>
        </g>
      </g>
    </g>
  </g>
</svg>
