<svg xmlns="http://www.w3.org/2000/svg" width="50" height="50" viewBox="0 0 50 50">
  <g id="Grupo_30781" data-name="Grupo 30781" transform="translate(-443 -1691)">
    <circle id="Elipse_65" data-name="Elipse 65" cx="25" cy="25" r="25" transform="translate(443 1691)" fill="#fff"/>
    <g id="Grupo_30553" data-name="Grupo 30553" transform="translate(370 468)">
      <g id="Grupo_212" data-name="Grupo 212" transform="translate(30 -25.5)">
        <path id="Subtração_3" data-name="Subtração 3" d="M8.99,32.847H2.374A2.157,2.157,0,0,1,0,30.48c0-3.414,0-6.885,0-10.242V16.4q0-7,0-14A2.173,2.173,0,0,1,2.412,0H13.117c-.03,0-.059,0-.086.009h.535L13.187,0h2.421c.088,0,.175,0,.259.009h0a2.239,2.239,0,0,1,1.577.685A2.449,2.449,0,0,1,18,2.385c0,9.315,0,18.761,0,28.076a2.167,2.167,0,0,1-2.392,2.385ZM5.37,0H5.35l-.545,0h.656c.158.02.235.1.273.287.053.26.122.521.188.773.047.179.1.365.139.548A.585.585,0,0,0,6.7,2.13h0c.8,0,1.621,0,2.514,0l2.515,0a.579.579,0,0,0,.63-.475c.044-.167.094-.335.145-.505.075-.251.152-.51.209-.769.054-.24.14-.34.319-.37H5.461A.766.766,0,0,0,5.37,0ZM13.675.01c.193,0,.4,0,.67,0l.725,0h-1.4ZM3.243.009h.925l.636,0H3.243Zm-.437,0h0Z" transform="translate(59 1257.5)" fill="none" stroke="#345b6a" stroke-miterlimit="10" stroke-width="1"/>
      </g>
      <g id="Grupo_213" data-name="Grupo 213" transform="translate(91 1244)">
        <path id="Caminho_38421" data-name="Caminho 38421" d="M3673.438,1379.845a1.417,1.417,0,0,0-.25,0c-.156.028-.174-.047-.171-.178.008-.307.006-.614,0-.921a.856.856,0,0,0-.88-.88c-1.521,0-3.042,0-4.562,0a.829.829,0,0,0-.6.224c-.061.058-.1.067-.164,0a.828.828,0,0,0-.6-.227c-1.519,0-3.041,0-4.561,0a.858.858,0,0,0-.886.89c0,.244,0,.49,0,.734,0,.352,0,.369-.352.348a.464.464,0,0,0-.517.58c.058.4.082.807.12,1.211.083.875.165,1.75.251,2.625a.63.63,0,0,0,.572.584c.1.012.113.043.1.133-.062.38-.115.761-.169,1.142a.212.212,0,0,0,.226.266c.11,0,.219,0,.328,0a.284.284,0,0,0,.312-.2c.153-.375.324-.743.47-1.121.065-.164.144-.237.328-.218s.272-.062.274-.2-.089-.205-.271-.205c-.484,0-.969,0-1.454,0-.22,0-.294-.073-.313-.3-.012-.155-.029-.31-.044-.466q-.16-1.661-.318-3.323c0-.039-.021-.079.039-.1a.359.359,0,0,1,.511.291c.048.271.1.541.146.812a10.12,10.12,0,0,1,.2,1.261.655.655,0,0,0,.708.7h4.468a.722.722,0,0,0,.444-.123.1.1,0,0,1,.137,0,.729.729,0,0,0,.458.125q.992,0,1.984,0c.829,0,1.656,0,2.484,0a.65.65,0,0,0,.694-.681,1.4,1.4,0,0,1,0-.187q.183-1,.369-2.009a.218.218,0,0,1,.232-.188c.057,0,.116,0,.172,0,.1-.01.128.028.118.134-.124,1.237-.241,2.474-.358,3.711-.027.3-.079.346-.376.346h-9.3c-.164,0-.263.077-.264.2s.1.2.259.2h.11q3.935,0,7.875,0a.2.2,0,0,1,.219.141c.127.318.267.631.4.946.222.514.125.449.706.451.214,0,.285-.094.255-.306-.056-.375-.107-.751-.166-1.126-.01-.072,0-.1.082-.106a.645.645,0,0,0,.6-.644c.066-.715.137-1.429.205-2.143.056-.575.112-1.149.164-1.724A.417.417,0,0,0,3673.438,1379.845Zm-12.216,6.057c.047-.329.1-.658.139-.987.007-.056.036-.068.083-.068.1,0,.2,0,.315,0-.159.372-.309.724-.461,1.076-.011.025-.023.049-.055.042S3661.217,1385.926,3661.222,1385.9Zm5.467-3.3c0,.232-.08.307-.312.307h-4.436c-.251,0-.325-.075-.325-.325v-.484c0-.239.076-.314.319-.315h4.4c.285,0,.349.065.35.349C3666.691,1382.287,3666.691,1382.443,3666.689,1382.6Zm0-1.487c0,.195-.1.264-.325.264q-2.17,0-4.342,0a.831.831,0,0,0-.568.138c-.053-.287-.083-.556-.153-.815a7.633,7.633,0,0,1-.116-1.952.436.436,0,0,1,.475-.461h4.548a.43.43,0,0,1,.48.455C3666.694,1379.53,3666.691,1380.321,3666.686,1381.112Zm5.668.3a.481.481,0,0,1-.03.087.878.878,0,0,0-.6-.127.187.187,0,0,0-.206.188c-.008.131.07.2.195.217a.116.116,0,0,0,.031,0c.4-.033.444.1.427.444,0,.135,0,.271,0,.406,0,.182-.088.274-.266.274q-2.271,0-4.546,0a.231.231,0,0,1-.258-.249c-.008-.187,0-.374,0-.562,0-.24.077-.312.323-.312h3.3a.974.974,0,0,0,.139,0,.192.192,0,0,0,.183-.213.185.185,0,0,0-.189-.188c-.047,0-.1,0-.14,0h-3.266c-.273,0-.348-.072-.348-.339,0-.734.006-1.468,0-2.2a.5.5,0,0,1,.564-.558c1.474.013,2.948.005,4.421.005a.459.459,0,0,1,.528.523.663.663,0,0,0,0,.094A8.927,8.927,0,0,1,3672.354,1381.417Zm.188,4.549c-.031.008-.045-.019-.057-.043q-.223-.528-.45-1.056a.186.186,0,0,1,.042-.017c.339-.022.337-.022.38.314.031.242.07.484.1.725C3672.566,1385.916,3672.586,1385.954,3672.542,1385.965Z" transform="translate(-3659.892 -1377.867)" fill="#345b6a"/>
        <path id="Caminho_38422" data-name="Caminho 38422" d="M3767.576,1393.26a.2.2,0,0,1,.2.2.2.2,0,0,1-.214.2.2.2,0,0,1,.016-.4Z" transform="translate(-3756.627 -1391.721)" fill="#345b6a"/>
        <path id="Caminho_38423" data-name="Caminho 38423" d="M3747.65,1393.471a.19.19,0,0,1,.205-.19.194.194,0,0,1,.2.2.2.2,0,0,1-.214.2A.2.2,0,0,1,3747.65,1393.471Z" transform="translate(-3738.876 -1391.74)" fill="#345b6a"/>
        <path id="Caminho_38424" data-name="Caminho 38424" d="M3688.631,1393.261a.187.187,0,0,1,.192.2.19.19,0,0,1-.2.2.2.2,0,0,1-.205-.209A.2.2,0,0,1,3688.631,1393.261Z" transform="translate(-3685.569 -1391.722)" fill="#345b6a"/>
        <path id="Caminho_38425" data-name="Caminho 38425" d="M3708.57,1393.474a.2.2,0,0,1-.4,0,.2.2,0,0,1,.212-.2A.191.191,0,0,1,3708.57,1393.474Z" transform="translate(-3703.34 -1391.732)" fill="#345b6a"/>
      </g>
    </g>
  </g>
</svg>
