<svg xmlns="http://www.w3.org/2000/svg" width="30" height="30" viewBox="0 0 30 30">
  <g id="Grupo_185" data-name="Grupo 185" transform="translate(-4183 -3395)">
    <g id="Grupo_53" data-name="Grupo 53" transform="translate(4183 3395)">
      <circle id="Elipse_7" data-name="Elipse 7" cx="15" cy="15" r="15"/>
    </g>
    <path id="Caminho_38314" data-name="Caminho 38314" d="M1140.631,71.049a16.4,16.4,0,0,0-.268-3.626,2.147,2.147,0,0,0-.646-1.108,2.049,2.049,0,0,0-1.153-.523c-.951-.106-1.911-.16-2.873-.187s-1.917-.027-2.876-.026-1.919,0-2.875.026-1.923.08-2.874.187a2.049,2.049,0,0,0-1.153.523,2.139,2.139,0,0,0-.645,1.108,10.864,10.864,0,0,0-.24,1.825c-.035.622-.035,1.236-.035,1.832s0,1.208.034,1.831a10.769,10.769,0,0,0,.238,1.824,2.146,2.146,0,0,0,.646,1.108,2.043,2.043,0,0,0,1.152.523c.952.106,1.911.16,2.875.187s1.917.027,2.876.026,1.92,0,2.876-.026,1.922-.08,2.874-.187a2.041,2.041,0,0,0,1.152-.523,2.15,2.15,0,0,0,.647-1.108,10.893,10.893,0,0,0,.238-1.824c.034-.61.034-1.23.034-1.831h0v-.03Zm-4.852.03-2.433,1.262-2.433,1.26-.242.126V68.119l.243.127,2.206,1.151,2.66,1.389h0l.283.148Z" transform="translate(3065.009 3339.421)" fill="#f3f3f3"/>
  </g>
</svg>
